<svg width="83" height="83" viewBox="0 0 83 83" fill="none" xmlns="http://www.w3.org/2000/svg">
<path d="M82.5001 41.19C82.5001 63.94 64.0601 82.38 41.3101 82.38C18.5601 82.38 0.120117 63.94 0.120117 41.19C0.120117 18.44 18.5601 0 41.3101 0C64.0601 0 82.5001 18.45 82.5001 41.19Z" fill="#9182F0"/>
<path d="M52.9302 17.6301C52.8702 17.5701 52.8202 17.5101 52.7602 17.4601C52.2802 16.9301 51.6002 16.6001 50.8302 16.6001H26.1002C24.6502 16.6001 23.4802 17.7701 23.4802 19.2201V58.1701C23.4802 58.9401 23.8202 59.6201 24.3402 60.1001C24.4002 60.1601 38.3402 74.1101 38.4002 74.1601C38.4202 74.1801 38.4402 74.2101 38.4602 74.2301V78.3501L42.4702 82.3601C62.7902 81.7901 79.4202 66.5301 82.1002 46.8101C72.1302 36.8201 52.9802 17.6701 52.9302 17.6301Z" fill="#9182F0"/>
<mask id="mask0_30_1460" style="mask-type:luminance" maskUnits="userSpaceOnUse" x="0" y="0" width="83" height="83">
<path d="M82.5001 41.19C82.5001 63.94 64.0601 82.38 41.3101 82.38C18.5601 82.38 0.120117 63.94 0.120117 41.19C0.120117 18.44 18.5601 0 41.3101 0C64.0601 0 82.5001 18.45 82.5001 41.19Z" fill="white"/>
</mask>
<g mask="url(#mask0_30_1460)">
<path d="M50.8302 60.7798H26.1002C24.6502 60.7798 23.4802 59.6099 23.4802 58.1599V19.2098C23.4802 17.7598 24.6502 16.5898 26.1002 16.5898H50.8302C52.2802 16.5898 53.4502 17.7598 53.4502 19.2098V58.1599C53.4502 59.6099 52.2802 60.7798 50.8302 60.7798Z" fill="#5441C6"/>
<path d="M26.7302 52.3098V22.4598C26.7302 21.0098 27.9002 19.8398 29.3502 19.8398H47.5802C49.0302 19.8398 50.2002 21.0098 50.2002 22.4598V52.3098C50.2002 53.7598 49.0302 54.9298 47.5802 54.9298H29.3502C27.9102 54.9298 26.7302 53.7598 26.7302 52.3098Z" fill="#1A1281"/>
<path d="M50.2002 27.9596L26.7302 36.8196V31.7296L50.2002 22.8696V27.9596Z" fill="white"/>
<path d="M50.2002 31.5798L26.7302 40.4298V38.8798L50.2002 30.0298V31.5798Z" fill="white"/>
<path d="M57.1303 62.2197H40.8003V68.4997H57.1303V62.2197Z" fill="#E7D3FF"/>
<path d="M38.4702 82.3798V70.3398C38.4702 69.3198 39.3002 68.4897 40.3202 68.4897H57.2802C58.3002 68.4897 59.1302 69.3198 59.1302 70.3398V82.3798H38.4702Z" fill="#FBFFD5"/>
<path d="M33.5503 56.8198H29.3003V59.2698H33.5503V56.8198Z" fill="#FBFFD5"/>
<path d="M40.9602 56.8198H36.7102V59.2698H40.9602V56.8198Z" fill="#FBFFD5"/>
<path d="M53.4203 48.4097L40.8203 49.8297L42.5603 34.9497L53.4503 45.8297L53.4203 48.4097Z" fill="#131F46"/>
<path d="M54.8202 46.1296H54.7702C53.4902 46.1296 52.4602 47.1596 52.4602 48.4396C52.4602 47.1596 51.4302 46.1296 50.1502 46.1296H50.1002C48.8202 46.1296 47.7902 47.1596 47.7902 48.4396C47.7902 47.1596 46.7602 46.1296 45.4802 46.1296H45.4302C44.1502 46.1296 43.1202 47.1596 43.1202 48.4396V36.4296C43.1202 35.1496 42.0902 34.1196 40.8102 34.1196H40.7602C39.4802 34.1196 38.4502 35.1496 38.4502 36.4296V57.5996C38.4502 60.1496 40.5202 62.2196 43.0702 62.2196H43.1202H47.7902H52.4602H52.5102C55.0602 62.2196 57.1302 60.1496 57.1302 57.5996V48.4496C57.1302 47.1696 56.1002 46.1296 54.8202 46.1296Z" fill="#FED4C5"/>
<path d="M50.2003 62.2197H43.0903V68.4997H50.2003V62.2197Z" fill="white"/>
</g>
</svg>
