<svg width="83" height="82" viewBox="0 0 83 82" fill="none" xmlns="http://www.w3.org/2000/svg">
<circle cx="41.75" cy="41" r="41" fill="#9182F0"/>
<path d="M27.7786 26C26.3074 26 25.1162 27.1911 25.1162 28.6624C25.1162 30.1337 26.3074 31.3249 27.7786 31.3249H60.9981C62.4694 31.3249 63.6605 30.1337 63.6605 28.6624C63.6605 27.1911 62.4694 26 60.9981 26H27.7786Z" fill="#9A5F3B"/>
<path d="M28.4609 31.3245H63.6606V28.8931H30.8924C29.5494 28.8931 28.4609 29.9816 28.4609 31.3245Z" fill="#FFFAD1"/>
<path d="M25.1162 28.6729V52.4914C25.1162 53.9627 26.3074 55.1539 27.7786 55.1539H60.9981C62.4694 55.1539 63.6605 53.9627 63.6605 52.4914V31.3267H27.7786C26.3116 31.3267 25.1205 30.1399 25.1162 28.6729Z" fill="#B06C45"/>
<path d="M64.3873 40.1074H60.3562C58.6839 40.1074 57.3281 41.4632 57.3281 43.1355V44.023C57.3281 45.6953 58.6839 47.0511 60.3562 47.0511H64.3873C65.1401 47.0511 65.7495 46.4416 65.7495 45.6889V41.4696C65.7495 40.7169 65.1401 40.1074 64.3873 40.1074Z" fill="#9A5F3B"/>
<path d="M62.373 43.5806C62.373 44.4638 61.6566 45.1802 60.7734 45.1802C59.8902 45.1802 59.1738 44.4638 59.1738 43.5806C59.1738 42.6974 59.8902 41.981 60.7734 41.981C61.6566 41.981 62.373 42.6974 62.373 43.5806Z" fill="#FFFAD1"/>
<path d="M60.9979 54.0052H59.7405V53.5134H60.9979C61.1027 53.5134 61.2075 53.4962 61.308 53.4663L61.4577 53.9346C61.3101 53.9817 61.1561 54.0052 61 54.0052H60.9979ZM58.0981 54.0052H56.4557V53.5134H58.0981V54.0052ZM54.8112 54.0052H53.1689V53.5134H54.8112V54.0052ZM51.5265 54.0052H49.8841V53.5134H51.5265V54.0052ZM48.2439 54.0052H46.6015V53.5134H48.2439V54.0052ZM44.9613 54.0052H43.3211V53.5134H44.9613V54.0052ZM41.6787 54.0052H40.0385V53.5134H41.6787V54.0052ZM38.3961 54.0052H36.7537V53.5134H38.3961V54.0052ZM35.1135 54.0052H33.4711V53.5134H35.1135V54.0052ZM31.8288 54.0052H30.1864V53.5134H31.8288V54.0052ZM28.544 54.0052H26.9038V53.5134H28.544V54.0052ZM62.5141 52.4569H62.0222V50.8188H62.5141V52.4569Z" fill="#FFFAD1"/>
<path d="M62.5143 48.4453H62.0225V49.2644H62.5143V48.4453Z" fill="#FFFAD1"/>
<path d="M62.5143 37.8965H62.0225V38.7155H62.5143V37.8965Z" fill="#FFFAD1"/>
<path d="M62.5143 34.9902H62.0225V36.4423H62.5143V34.9902Z" fill="#FFFAD1"/>
<path d="M62.5142 33.5381H62.0223V32.965H61.4492V32.4731H62.5142V33.5381Z" fill="#FFFAD1"/>
<path d="M59.8688 32.965H58.2884V32.4731H59.8688V32.965ZM56.7059 32.965H55.1256V32.4731H56.7059V32.965ZM53.5452 32.965H51.9649V32.4731H53.5452V32.965ZM50.3845 32.965H48.8042V32.4731H50.3845V32.965ZM47.2217 32.965H45.6413V32.4731H47.2217V32.965ZM44.061 32.965H42.4806V32.4731H44.061V32.965ZM40.8981 32.965H39.3178V32.4731H40.8981V32.965ZM37.7374 32.965H36.1571V32.4731H37.7374V32.965ZM34.5767 32.965H32.9964V32.4731H34.5767V32.965ZM31.4139 32.965H29.8336V32.4731H31.4139V32.965ZM28.2532 32.965H26.6729V32.4731H28.2532V32.965Z" fill="#FFFAD1"/>
<path d="M36.3758 40.6767C30.527 40.264 25.1166 35.6299 25.1166 35.6299C25.1166 35.6299 19.7083 40.2661 13.8574 40.6767C13.8574 40.6767 11.8579 58.1547 25.1166 62.081C38.3753 58.1547 36.3758 40.6767 36.3758 40.6767Z" fill="#B6B3F7"/>
<path d="M25.1162 59.5251C20.9355 58.0367 18.1747 54.6557 16.9087 49.4635C16.2778 46.8759 16.1666 44.4016 16.1837 42.7935C19.9389 41.998 23.2536 39.9921 25.1162 38.6812C26.9789 39.9921 30.2914 41.998 34.0488 42.7935C34.0659 44.4016 33.9568 46.8759 33.3238 49.4635C32.0578 54.6557 29.297 58.0367 25.1162 59.5251Z" fill="#0D1462"/>
<path d="M24.9902 54.6151L19.3638 49.4036L20.6533 48.0136L24.663 51.726L29.8381 44.1279L31.4057 45.195L24.9902 54.6151Z" fill="white"/>
</svg>
