<svg width="84" height="83" viewBox="0 0 84 83" fill="none" xmlns="http://www.w3.org/2000/svg">
<path d="M42.0597 82.3806C64.8085 82.3806 83.25 63.9391 83.25 41.1903C83.25 18.4415 64.8085 0 42.0597 0C19.3109 0 0.869385 18.4415 0.869385 41.1903C0.869385 63.9391 19.3109 82.3806 42.0597 82.3806Z" fill="#9182F0"/>
<path d="M18.5166 57.1956L43.6566 82.3356C63.6166 81.5656 79.9366 66.6056 82.7966 47.2556L65.5566 30.0156L18.5166 57.1956Z" fill="#9182F0"/>
<path d="M56.6027 28.3267V27.2992C56.6027 27.2992 56.562 26.5163 55.8933 26.0474C55.8933 26.0474 53.8628 24.7427 53.7853 19.8295C53.7853 19.8295 53.6344 13 45.6837 13H41.9814" stroke="#2C343F" stroke-width="1.46" stroke-linecap="round" stroke-linejoin="round"/>
<path d="M29.0115 28.3267V27.2992C29.0115 27.2992 29.0522 26.5163 29.725 26.0474C29.725 26.0474 31.7555 24.7427 31.833 19.8295C31.833 19.8295 31.9838 13 39.9346 13H43.6368" stroke="#2C343F" stroke-width="1.46" stroke-linecap="round" stroke-linejoin="round"/>
<path d="M51.4653 27.666H36.6809V45.1211H51.4653V27.666Z" fill="#140600"/>
<path d="M51.7916 43.4291C47.808 42.9806 45.8468 41.8022 45.5125 41.582H38.422C38.0877 41.8022 36.1265 42.9765 32.1429 43.4291C32.1429 43.4291 24.555 43.7145 24.7671 57.4714C24.7671 57.4714 30.4794 60.0483 41.9693 60.0279C53.4592 60.0483 59.1715 57.4714 59.1715 57.4714C59.3836 43.7104 51.7957 43.4291 51.7957 43.4291H51.7916Z" fill="#F7C7AD"/>
<path d="M32.1388 43.429C32.1388 43.429 24.5509 43.7144 24.7629 57.4713C24.7629 57.4713 30.4752 60.0482 41.9652 60.0278C53.4551 60.0482 59.1674 57.4713 59.1674 57.4713C59.3794 43.7103 51.7915 43.429 51.7915 43.429C51.7915 43.429 44.3993 42.903 41.9652 46.0507C41.9652 46.0507 39.6207 42.1813 32.1429 43.429H32.1388Z" fill="white"/>
<path d="M45.5858 37.7617H38.3445V43.0296H45.5858V37.7617Z" fill="#F7C7AD"/>
<g style="mix-blend-mode:multiply">
<path d="M38.3444 39.2622C38.426 39.36 38.5034 39.4497 38.5931 39.5394C38.8174 39.7718 39.0539 39.9961 39.3067 40.204C39.3148 40.2081 39.323 40.2163 39.327 40.2203C39.4086 40.2815 39.4901 40.3386 39.5758 40.3957C39.7022 40.4813 39.8326 40.5669 39.9672 40.6485C40.1588 40.7626 40.3545 40.8727 40.5543 40.9747C40.6196 40.9991 40.8112 41.0766 40.8683 41.097C41.064 41.1622 41.2597 41.2274 41.4554 41.2805C41.6593 41.3335 41.8631 41.3865 42.0711 41.4272C42.0181 41.415 42.6174 41.5169 42.4747 41.5047C42.964 41.5577 43.4533 41.5944 43.9426 41.5863C44.1546 41.5863 44.3625 41.5781 44.5746 41.5618C44.6439 41.5577 44.9578 41.5088 44.9864 41.5088C45.1862 41.4639 45.386 41.4109 45.5817 41.3457V37.7617H38.3403V39.2459C38.3607 39.2785 38.3648 39.2907 38.3403 39.2622H38.3444Z" fill="#DADADA"/>
</g>
<path d="M50.2014 28.2411C50.2014 34.4753 46.5155 39.5312 41.9652 39.5312C37.4149 39.5312 33.729 34.4753 33.729 28.2411C33.729 22.0068 37.419 18.0967 41.9652 18.0967C46.5114 18.0967 50.2014 22.0068 50.2014 28.2411Z" fill="#F7C7AD"/>
<g style="mix-blend-mode:soft-light" opacity="0.5">
<path d="M37.5739 23.1444C37.5739 23.1444 37.578 23.1159 37.582 23.0996C38.7441 21.7336 40.3505 20.9712 42.1242 20.9712C45.6796 20.9712 48.5582 24.0251 48.5582 28.8975C48.5582 32.1431 47.2779 34.9809 45.3697 36.5099C45.3697 36.5099 34.6015 35.2255 37.5698 23.1403L37.5739 23.1444Z" fill="white"/>
</g>
<g style="mix-blend-mode:multiply">
<path d="M40.6808 37.0481C37.8756 35.2785 36.3425 32.2776 35.9552 29.0443C35.5882 26.0107 36.3629 22.651 38.2874 20.2536C38.9561 19.4218 39.8082 18.7164 40.7582 18.1904C36.7788 18.8183 33.7249 22.5654 33.7249 28.241C33.7249 34.4753 37.4148 39.5312 41.9611 39.5312C43.2821 39.5312 44.5298 39.103 45.6388 38.3447C43.9141 38.4017 42.1894 37.9981 40.6767 37.044L40.6808 37.0481Z" fill="#EDEDED"/>
</g>
<path d="M38.0713 41.79C37.3007 42.21 35.3966 43.0622 32.1388 43.4291C32.1388 43.4291 24.5509 43.7145 24.7629 57.4714C24.7629 57.4714 30.4752 60.0483 41.9652 60.0279C53.4551 60.0483 59.1674 57.4714 59.1674 57.4714C59.3794 43.7105 51.7915 43.4291 51.7915 43.4291C48.5337 43.0622 46.6255 42.2059 45.859 41.79C45.859 41.79 49.9078 50.8091 41.9692 58.923C41.9692 58.923 34.2957 51.017 38.0754 41.79H38.0713Z" fill="#0D3953"/>
<path d="M35.6535 48.3342C35.6535 48.3342 35.6616 48.3709 35.6616 48.3872C35.6902 48.5258 35.7187 48.6685 35.7513 48.8071C35.7717 48.799 35.7921 48.7908 35.8125 48.7786C35.7554 48.6318 35.7024 48.4809 35.6494 48.3301L35.6535 48.3342Z" fill="#00B1C3"/>
<path d="M51.7914 43.4291C48.5337 43.0622 46.6255 42.2059 45.8589 41.79C45.8589 41.79 49.9077 50.8091 41.9692 58.923C41.9692 58.923 34.2956 51.017 38.0753 41.79C37.3047 42.21 35.4006 43.0622 32.1428 43.4291C32.1428 43.4291 30.887 46.7154 33.5413 49.6348C33.5413 49.6348 34.6911 49.0151 35.3109 49.1945L33.1132 50.8091C33.1132 50.8091 33.631 57.0678 40.4442 60.032H43.8937C43.8937 60.032 49.7976 57.1575 50.8292 49.5492C50.8292 49.5492 50.2787 48.9294 48.5826 48.3994C48.5826 48.3994 49.6223 48.0447 50.8292 48.2241C50.8292 48.2241 53.0636 47.0498 51.7955 43.4332L51.7914 43.4291Z" fill="#009AB0"/>
<g style="mix-blend-mode:multiply">
<path d="M51.7915 43.4291C48.5338 43.0622 46.6256 42.2059 45.859 41.79C45.859 41.79 49.9078 50.8091 41.9693 58.923C41.9693 58.923 41.8959 58.8455 41.7654 58.6987C40.7868 59.0045 39.7471 58.45 38.952 57.9199C38.0265 57.3043 37.1172 56.5948 36.3711 55.7671C35.6209 54.9394 34.8135 53.9079 34.6505 52.7621C34.4262 51.2087 35.0093 49.9202 36.3548 49.0844C36.5994 48.9335 36.8685 48.8479 37.1458 48.8234C36.8767 46.6584 37.0642 44.2731 38.0836 41.79C37.3129 42.21 35.4088 43.0622 32.1511 43.4291C32.1511 43.4291 32.1347 43.4781 32.1062 43.5637C32.9828 43.4821 33.8391 43.315 34.6708 43.8002C36.3222 44.7624 36.049 46.8133 35.0093 48.1099C34.5771 48.6481 33.9573 49.0395 33.2968 49.3412C33.3783 49.4391 33.4599 49.537 33.5496 49.6348C33.5496 49.6348 34.6994 49.0151 35.3191 49.1945L33.1215 50.8091C33.1215 50.8091 33.6393 57.0678 40.4525 60.032H43.9019C43.9019 60.032 49.8059 57.1575 50.8374 49.5492C50.8374 49.5492 50.287 48.9294 48.5908 48.3994C48.5908 48.3994 49.6306 48.0447 50.8374 48.2241C50.8374 48.2241 53.0718 47.0498 51.8038 43.4332L51.7915 43.4291Z" fill="#EDEDED"/>
</g>
<g style="mix-blend-mode:multiply">
<path d="M51.7915 43.429C50.8741 43.3271 50.0668 43.1844 49.3614 43.0254C49.5204 43.4617 49.6305 43.9061 49.655 44.3831C49.708 45.4596 49.3533 46.6624 48.5337 47.4085C48.0281 47.8652 47.4614 48.1832 46.8579 48.3993C46.8579 48.4482 46.8498 48.5012 46.8457 48.5502C49.9363 51.8243 46.2096 58.4458 42.1649 58.7109C42.0997 58.7802 42.0345 58.8495 41.9651 58.9188C41.9651 58.9188 41.957 58.9107 41.9407 58.8944V60.0238H43.8856C43.8856 60.0238 49.7895 57.1493 50.8211 49.541C50.8211 49.541 50.2706 48.9212 48.5745 48.3912C48.5745 48.3912 49.6142 48.0364 50.8211 48.2158C50.8211 48.2158 53.0555 47.0416 51.7874 43.425L51.7915 43.429Z" fill="#EDEDED"/>
</g>
<path d="M42.0793 46.0547H41.8469V58.7474H42.0793V46.0547Z" fill="#C6C6C6"/>
<path d="M38.0712 41.7902C38.0712 41.7902 34.7726 42.9808 36.3669 47.0704C36.3669 47.0704 36.7379 42.7321 42.0099 47.5555C42.0099 47.5555 42.3605 43.9063 40.3463 43.1317C40.3463 43.1317 38.0712 42.7892 38.0712 41.7861V41.7902Z" fill="#DEDEDE"/>
<path d="M45.9323 41.79C45.9323 41.79 48.9006 42.9154 47.2493 46.585C47.2493 46.585 45.6143 42.7808 42.0099 47.5595C42.0099 47.5595 41.5002 43.5474 43.6531 43.1356C43.6531 43.1356 45.9282 42.7931 45.9282 41.79H45.9323Z" fill="#DEDEDE"/>
<path d="M53.4755 41.586C53.4755 41.586 53.3165 30.9727 52.7864 24.7834C52.7864 24.7834 52.7864 24.7181 52.7864 24.5999C52.8395 22.6428 52.0118 20.2738 51.1229 18.8957C50.4746 17.8886 49.7244 16.9345 48.8355 16.1231C45.7408 13.3016 38.683 13.1304 36.6851 17.5094C34.8014 18.8386 27.3154 25.4969 36.1836 42.6461L38.3527 41.7817L38.475 38.4709C38.475 38.4709 29.929 29.4967 37.7697 21.2279C37.7697 21.2279 37.7778 21.2198 37.7982 21.2075C37.79 21.2157 37.7819 21.2238 37.7737 21.2279C39.1478 20.5225 40.954 20.3595 42.4708 20.5878C46.6745 21.2238 47.5838 25.8353 49.3982 28.9422C49.704 29.4682 50.0343 30.0635 50.3686 30.4101C50.6622 32.9747 50.813 36.2406 50.6907 40.3954C50.6907 40.3954 50.8212 45.3739 47.1353 49.4879C47.1353 49.4879 55.2981 52.1993 53.4877 41.586H53.4755Z" fill="#432918"/>
<path d="M37.79 21.2036C38.0714 21.0324 38.3649 20.8856 38.6748 20.7674C38.9806 20.641 39.2986 20.5472 39.6208 20.4575C39.9429 20.3759 40.2731 20.3148 40.6034 20.2781C40.7706 20.2496 40.9377 20.2496 41.1049 20.2373C41.2721 20.221 41.4433 20.2251 41.6105 20.2373C41.7777 20.2455 41.9489 20.2373 42.1161 20.2699L42.6217 20.3352C42.7888 20.3678 42.9519 20.4126 43.1191 20.4534C43.2863 20.486 43.4494 20.5472 43.6084 20.6043C43.7674 20.6654 43.9346 20.7144 44.0895 20.7837L44.5502 21.012C44.8601 21.1629 45.1292 21.379 45.4187 21.5584L45.4391 21.5706L45.4676 21.5991C45.749 21.909 46.0181 22.2067 46.2709 22.5329C46.5237 22.8509 46.7642 23.1852 47.0007 23.5196L47.3351 24.0374C47.4492 24.2086 47.543 24.3962 47.6409 24.5797C47.7346 24.7672 47.8447 24.9385 47.9181 25.1383L48.1546 25.7254L48.3707 26.2595L48.6031 26.81C48.7621 27.1769 48.913 27.5439 49.0842 27.9027C49.1658 28.0862 49.2473 28.2656 49.337 28.445C49.4267 28.6244 49.5042 28.8079 49.6021 28.9791L49.8834 29.5051L50.2137 30.0066L49.7855 29.5744L49.4104 29.0933C49.284 28.9302 49.1821 28.7589 49.0679 28.5918C48.9538 28.4246 48.8437 28.2533 48.7417 28.078C48.5338 27.7314 48.334 27.3808 48.1383 27.0261L47.861 26.4879C47.7673 26.3003 47.6857 26.1454 47.5838 25.9252L47.3391 25.4074C47.2698 25.232 47.1516 25.069 47.0578 24.9018C46.96 24.7346 46.8662 24.5674 46.7479 24.4084L46.4217 23.9232C46.1893 23.6093 45.9569 23.2912 45.7082 22.9854C45.4595 22.6837 45.2067 22.3738 44.9498 22.0884L44.9947 22.1292C44.7337 21.9661 44.4932 21.7622 44.22 21.6236L43.8123 21.4034C43.6777 21.33 43.5309 21.2811 43.3882 21.22C43.2455 21.1588 43.1028 21.0976 42.9519 21.0609L42.5075 20.9305L42.0508 20.8367C41.9 20.8 41.741 20.7918 41.586 20.7714C41.4311 20.7511 41.2721 20.7348 41.1171 20.7348C40.9622 20.7348 40.8032 20.7103 40.6442 20.7225C40.3261 20.7225 40.0122 20.7511 39.6901 20.7837C39.372 20.8245 39.054 20.8775 38.7401 20.9468C38.422 21.0161 38.1121 21.0976 37.8023 21.2077L37.79 21.2036Z" fill="#20150E"/>
<g style="mix-blend-mode:multiply">
<path d="M36.3547 18.5493C36.3547 18.5493 27.299 25.2402 37.1294 42.2631L38.3445 41.7779C38.3445 41.7779 28.3673 28.816 36.3547 18.5493Z" fill="#C6C6C6"/>
</g>
<g style="mix-blend-mode:multiply">
<path d="M37.79 17.7868C37.79 17.7868 38.0388 17.5911 38.524 17.322C38.7686 17.1875 39.0622 17.0244 39.421 16.8735C39.5963 16.792 39.792 16.7186 39.9918 16.637C40.1957 16.5636 40.4158 16.4862 40.6442 16.4209C40.8725 16.3475 41.1171 16.2905 41.374 16.2252C41.5004 16.1926 41.6309 16.1763 41.7654 16.1477C41.9 16.1192 42.0345 16.0988 42.1732 16.0825C42.7277 16.001 43.323 15.9887 43.9427 16.0295C44.0977 16.0417 44.2526 16.058 44.4116 16.0744C44.5666 16.1029 44.7256 16.1314 44.8805 16.16C45.0395 16.1844 45.1945 16.2293 45.3535 16.2741L45.59 16.3394L45.7082 16.372L45.8224 16.4169C45.9773 16.4739 46.1323 16.5351 46.2872 16.5963C46.4421 16.6574 46.5848 16.739 46.7357 16.8164L46.9599 16.9306C47.0333 16.9714 47.1027 17.0203 47.172 17.0611L47.596 17.3302C48.1261 17.7338 48.6357 18.1742 49.0435 18.6838C49.1454 18.8102 49.2514 18.9326 49.3533 19.059C49.443 19.1935 49.5327 19.324 49.6224 19.4545C49.7081 19.5849 49.8059 19.7154 49.8834 19.8459C49.9568 19.9804 50.0343 20.115 50.1076 20.2495C50.181 20.3841 50.2544 20.5146 50.3278 20.645C50.389 20.7796 50.4501 20.9141 50.5072 21.0487C50.6214 21.3178 50.7478 21.5706 50.8293 21.8356C50.919 22.0966 51.0047 22.3494 51.0903 22.594C51.1596 22.8427 51.2167 23.0833 51.2778 23.3157C51.3349 23.5481 51.4042 23.7642 51.4328 23.9803C51.4695 24.1923 51.5062 24.3962 51.5388 24.5837C51.5673 24.7754 51.6081 24.9507 51.6244 25.1179C51.6407 25.281 51.657 25.4359 51.6693 25.5745C51.6978 25.8477 51.71 26.0638 51.7263 26.2106C51.7345 26.3574 51.7427 26.4348 51.7427 26.4348C51.7427 26.4348 51.7182 26.3615 51.6652 26.2228C51.6203 26.0842 51.5469 25.8803 51.4654 25.6194C51.4246 25.4889 51.3798 25.3462 51.3268 25.1872C51.2738 25.0322 51.2126 24.8651 51.1474 24.6857C51.0169 24.3309 50.8823 23.9273 50.6989 23.5032C50.6092 23.2912 50.5235 23.067 50.4257 22.8386C50.3197 22.6144 50.2096 22.3861 50.0954 22.1496C49.9935 21.909 49.8548 21.6807 49.7244 21.4401C49.6591 21.3219 49.5939 21.1996 49.5287 21.0772C49.4512 20.959 49.3778 20.8448 49.3003 20.7266C49.2229 20.6083 49.1495 20.4901 49.072 20.3678C48.9945 20.2495 48.9008 20.1395 48.8192 20.0253C48.7336 19.9111 48.648 19.797 48.5583 19.6828C48.4645 19.5768 48.3707 19.4667 48.2728 19.3607C47.8937 18.9203 47.4492 18.5411 46.9885 18.1946L46.6256 17.9581C46.5644 17.9214 46.5074 17.8765 46.4421 17.8439L46.2505 17.742L46.0589 17.6441C45.9936 17.6115 45.9365 17.5707 45.8672 17.5463C45.7367 17.4892 45.6022 17.4362 45.4717 17.3791C44.9376 17.1834 44.3912 17.0284 43.8449 16.9591C43.2985 16.8857 42.7562 16.849 42.2425 16.8735C41.7287 16.8898 41.2354 16.9347 40.7828 17.0081C39.8776 17.1467 39.1315 17.3546 38.6096 17.5096C38.3527 17.5952 38.1448 17.6564 38.0061 17.7094C37.8675 17.7583 37.7941 17.7868 37.7941 17.7868H37.79Z" fill="#C6C6C6"/>
</g>
<g style="mix-blend-mode:multiply">
<path d="M37.4148 19.3034C37.4148 19.3034 37.6431 19.1077 38.0957 18.8345C38.32 18.7 38.6013 18.541 38.9356 18.382C39.27 18.227 39.6573 18.0639 40.0977 17.9294C40.538 17.7948 41.0232 17.6725 41.5574 17.6113C42.0874 17.5461 42.6623 17.5257 43.2535 17.6032C43.8407 17.6725 44.4563 17.8152 45.0312 18.0802L45.2473 18.174C45.3167 18.2107 45.386 18.2474 45.4594 18.2882C45.598 18.3656 45.7407 18.439 45.8752 18.5206C46.1321 18.7081 46.4094 18.8753 46.6418 19.0914C46.76 19.1974 46.8864 19.2994 46.9965 19.4094L47.3227 19.756L47.4858 19.9273C47.5388 19.9884 47.5837 20.0496 47.6285 20.1107C47.7223 20.2331 47.8161 20.3595 47.9098 20.4818C48.0077 20.6 48.0852 20.7346 48.1667 20.861C48.2483 20.9914 48.3257 21.1178 48.4073 21.2442L48.4644 21.338L48.5133 21.4359C48.5459 21.5011 48.5785 21.5663 48.6152 21.6316C48.6805 21.7621 48.7457 21.8925 48.8109 22.023C48.8802 22.1494 48.9332 22.284 48.9863 22.4144C49.0393 22.5449 49.0923 22.6754 49.1412 22.8018C49.1901 22.9323 49.2472 23.0546 49.288 23.1851C49.3287 23.3155 49.3695 23.4378 49.4062 23.5642C49.4429 23.6906 49.4837 23.813 49.5204 23.9312C49.5571 24.0535 49.5979 24.1718 49.6223 24.29C49.6794 24.5265 49.7324 24.7589 49.7813 24.9791C49.8058 25.0892 49.8303 25.1992 49.8547 25.3012C49.871 25.4072 49.8914 25.5132 49.9077 25.6151C49.9403 25.819 49.9689 26.0106 49.9974 26.1941C50.0586 26.5529 50.0749 26.875 50.0994 27.136C50.1238 27.3969 50.132 27.6008 50.1401 27.7435C50.1483 27.8821 50.1524 27.9596 50.1524 27.9596C50.1524 27.9596 50.1279 27.8862 50.0831 27.7557C50.0423 27.6212 49.977 27.4255 49.9037 27.1768C49.8303 26.928 49.7406 26.6263 49.6182 26.2838C49.5612 26.1126 49.5 25.9291 49.4348 25.7415C49.4021 25.6437 49.3695 25.5499 49.3369 25.448C49.3002 25.3501 49.2594 25.2482 49.2187 25.1462C49.1412 24.9424 49.0596 24.7263 48.9781 24.5061C48.8965 24.2859 48.7905 24.0658 48.6927 23.8374C48.6438 23.7233 48.5948 23.605 48.5459 23.4868C48.497 23.3685 48.4317 23.2584 48.3747 23.1402C48.3176 23.022 48.2564 22.9078 48.1993 22.7895C48.1422 22.6713 48.0811 22.549 48.0118 22.4348C47.9425 22.3207 47.8772 22.2024 47.8079 22.0882L47.706 21.9129L47.657 21.8232L47.6 21.7376C47.5225 21.6275 47.445 21.5133 47.3676 21.3992C47.2901 21.285 47.2167 21.1668 47.127 21.0608C47.0414 20.9548 46.9517 20.8447 46.866 20.7387C46.8212 20.6856 46.7804 20.6286 46.7356 20.5796L46.5929 20.4288L46.3074 20.1271C46.2055 20.0333 46.0995 19.9477 45.9976 19.8539C45.7978 19.6622 45.5613 19.5195 45.3452 19.3564C45.231 19.283 45.1087 19.2219 44.9945 19.1485C44.9334 19.1159 44.8763 19.0792 44.8192 19.0466L44.6357 18.9609C44.5134 18.9079 44.3952 18.8427 44.2688 18.7978C44.1424 18.753 44.016 18.7081 43.8937 18.6633C43.7673 18.6184 43.6409 18.594 43.5104 18.5573C43.4492 18.541 43.384 18.5247 43.3188 18.5084C43.2535 18.4961 43.1924 18.488 43.1271 18.4757C43.0007 18.4554 42.8743 18.4227 42.7439 18.4146C42.6175 18.4023 42.487 18.3901 42.3647 18.3738C42.2383 18.3616 42.1119 18.3656 41.9896 18.3575C41.8632 18.3493 41.7408 18.3534 41.6185 18.3575C41.1292 18.3616 40.6685 18.4187 40.2404 18.488C39.8123 18.5532 39.4208 18.6511 39.0783 18.7408C38.7318 18.8345 38.4341 18.9242 38.1895 19.0099C37.9448 19.0955 37.7532 19.1648 37.6227 19.2178C37.4923 19.2708 37.423 19.2994 37.423 19.2994L37.4148 19.3034Z" fill="#C6C6C6"/>
</g>
<path d="M57.0879 28.6648C57.0879 29.0563 56.7698 29.3743 56.3784 29.3743C55.987 29.3743 55.6689 29.0563 55.6689 28.6648C55.6689 28.2734 55.987 27.9595 56.3784 27.9595C56.7698 27.9595 57.0879 28.2775 57.0879 28.6648Z" fill="#8F2015"/>
<path d="M50.719 26.6305C50.719 25.6315 51.5345 24.8242 52.5375 24.8242C53.5405 24.8242 54.356 25.6315 54.356 26.6305V30.6956C54.356 31.6945 53.5405 32.5018 52.5375 32.5018C51.5345 32.5018 50.719 31.6945 50.719 30.6956V26.6305Z" fill="#464F5B"/>
<g style="mix-blend-mode:multiply">
<path d="M52.9086 26.7282C53.6955 27.6986 53.8015 28.828 53.5773 30.0186C53.3857 31.042 52.6232 32.0735 51.559 32.2203C51.8404 32.3997 52.1747 32.5057 52.5376 32.5057C53.5406 32.5057 54.3561 31.6984 54.3561 30.6995V26.6344C54.3561 25.6354 53.5406 24.8281 52.5376 24.8281C51.7547 24.8281 51.086 25.3215 50.8333 26.0187C51.5998 25.9249 52.3989 26.1043 52.9127 26.7322L52.9086 26.7282Z" fill="#C6C6C6"/>
</g>
<g style="mix-blend-mode:soft-light" opacity="0.5">
<path d="M51.3591 26.6304C51.3591 26.5285 51.4448 26.4429 51.5467 26.4429C51.6486 26.4429 51.7342 26.5285 51.7342 26.6304V31.2256C51.7342 31.3316 51.6486 31.4131 51.5467 31.4131C51.4407 31.4131 51.3591 31.3316 51.3591 31.2256V26.6304Z" fill="white"/>
</g>
<path d="M54.1074 25.8926V31.4337C55.3265 31.0993 56.2236 29.9862 56.2236 28.6652C56.2236 27.3441 55.3265 26.231 54.1074 25.8967V25.8926Z" fill="#D42A26"/>
<g style="mix-blend-mode:multiply">
<path d="M55.3632 29.7211C54.4377 29.1258 54.2012 28.29 54.1074 27.2788V31.4295C54.8943 31.2134 55.5467 30.6711 55.9137 29.9576C55.722 29.9046 55.5345 29.8271 55.3673 29.7211H55.3632Z" fill="#DADADA"/>
</g>
<path d="M55.0086 30.1694C55.0086 30.1694 56.0524 39.6655 46.0588 39.3964" stroke="#2C343F" stroke-width="1.67" stroke-linecap="round" stroke-linejoin="round"/>
<path d="M46.4216 39.4332C46.4216 39.8898 46.0506 40.2609 45.5898 40.2609H44.4726C44.0119 40.2609 43.6409 39.8898 43.6409 39.4332C43.6409 38.9765 44.016 38.6055 44.4726 38.6055H45.5898C46.0506 38.6055 46.4216 38.9765 46.4216 39.4332Z" fill="#232A33"/>
<path d="M28.5303 28.6648C28.5303 29.0563 28.8483 29.3743 29.2397 29.3743C29.6312 29.3743 29.9492 29.0563 29.9492 28.6648C29.9492 28.2734 29.6312 27.9595 29.2397 27.9595C28.8483 27.9595 28.5303 28.2775 28.5303 28.6648Z" fill="#8F2015"/>
<path d="M34.8992 26.6305C34.8992 25.6315 34.0837 24.8242 33.0807 24.8242C32.0777 24.8242 31.2622 25.6315 31.2622 26.6305V30.6956C31.2622 31.6945 32.0777 32.5018 33.0807 32.5018C34.0837 32.5018 34.8992 31.6945 34.8992 30.6956V26.6305Z" fill="#464F5B"/>
<g style="mix-blend-mode:multiply">
<path d="M32.7097 26.7282C31.9227 27.6986 31.8167 28.828 32.041 30.0186C32.2326 31.042 32.9951 32.0735 34.0593 32.2203C33.7779 32.3997 33.4436 32.5057 33.0807 32.5057C32.0777 32.5057 31.2622 31.6984 31.2622 30.6995V26.6344C31.2622 25.6354 32.0777 24.8281 33.0807 24.8281C33.8635 24.8281 34.5322 25.3215 34.785 26.0187C34.0185 25.9249 33.2152 26.1043 32.7056 26.7322L32.7097 26.7282Z" fill="#C6C6C6"/>
</g>
<g style="mix-blend-mode:soft-light" opacity="0.5">
<path d="M34.2549 26.6304C34.2549 26.5285 34.1693 26.4429 34.0633 26.4429C33.9573 26.4429 33.8757 26.5285 33.8757 26.6304V31.2256C33.8757 31.3316 33.9614 31.4131 34.0633 31.4131C34.1693 31.4131 34.2549 31.3316 34.2549 31.2256V26.6304Z" fill="white"/>
</g>
<path d="M31.5109 25.8926V31.4337C30.2877 31.0993 29.3948 29.9862 29.3948 28.6652C29.3948 27.3441 30.2918 26.231 31.5109 25.8967V25.8926Z" fill="#D42A26"/>
<g style="mix-blend-mode:multiply">
<path d="M30.2509 29.7211C31.1764 29.1258 31.4129 28.29 31.5067 27.2788V31.4295C30.7157 31.2134 30.0674 30.6711 29.7004 29.9576C29.8921 29.9046 30.0796 29.8271 30.2468 29.7211H30.2509Z" fill="#DADADA"/>
</g>
<path d="M59.4814 66.7963C59.4814 67.4446 58.7637 67.9665 57.879 67.9665H25.5295C24.6447 67.9665 23.9271 67.4446 23.9271 66.7963L22.5 50.699C22.5 50.0548 23.2176 49.5288 24.1024 49.5288H59.9176C60.8024 49.5288 61.52 50.0548 61.52 50.699L59.4814 66.7963Z" fill="#3C444E"/>
<g style="mix-blend-mode:soft-light" opacity="0.2">
<path d="M50.2463 55.1434C51.0087 55.6286 51.8323 55.9304 52.6927 56.1954C53.6794 56.5012 54.6905 56.7662 55.7221 56.8518C56.6069 56.9252 57.5936 56.9415 58.4335 56.6072C58.825 56.4523 59.1674 56.2321 59.4814 55.9752L59.987 51.9713C59.987 51.7266 59.7138 51.5269 59.3795 51.5269H47.5715C47.8203 53.0273 48.9945 54.3484 50.2381 55.1394L50.2463 55.1434Z" fill="white"/>
</g>
<g style="mix-blend-mode:multiply">
<path d="M58.4254 62.8251C56.5621 63.7303 54.5316 63.9831 52.4766 63.979C49.9364 63.9709 47.4166 63.5672 44.9621 62.923C42.6543 62.3196 40.2609 61.6713 38.0959 60.656C34.4997 58.9639 31.25 56.1832 29.5008 52.5625C29.0279 51.5799 28.6772 50.5769 28.5019 49.5249H24.1065C23.2218 49.5249 22.5042 50.0509 22.5042 50.6951L23.9312 66.7924C23.9312 67.4407 24.6488 67.9626 25.5336 67.9626H57.8831C58.7679 67.9626 59.4855 67.4407 59.4855 66.7924L60.1256 61.7447C59.5997 62.1565 59.0411 62.5234 58.4295 62.8211L58.4254 62.8251Z" fill="#C6C6C6"/>
</g>
</svg>
